<?xml version="1.0" encoding="UTF-8"?>
<!DOCTYPE svg PUBLIC "-//W3C//DTD SVG 1.1//EN" "http://www.w3.org/Graphics/SVG/1.1/DTD/svg11.dtd">
<svg xmlns="http://www.w3.org/2000/svg" version="1.1" width="200px" height="56px" style="shape-rendering:geometricPrecision; text-rendering:geometricPrecision; image-rendering:optimizeQuality; fill-rule:evenodd; clip-rule:evenodd" xmlns:xlink="http://www.w3.org/1999/xlink">
<g><path style="opacity:1" fill="#f9f9f9" d="M -0.5,-0.5 C 50.1667,-0.5 100.833,-0.5 151.5,-0.5C 150.407,1.55614 148.574,2.55614 146,2.5C 144.236,2.45551 142.569,2.12218 141,1.5C 140.333,2.16667 139.667,2.83333 139,3.5C 138.894,7.3902 138.061,11.0569 136.5,14.5C 134.261,9.76582 130.594,6.59916 125.5,5C 113.215,3.43909 100.882,3.10576 88.5,4C 87.5168,12.4149 87.1834,20.9149 87.5,29.5C 87.1868,36.7546 87.5201,43.9213 88.5,51C 99.8333,51.6667 111.167,51.6667 122.5,51C 125.666,50.6779 128.333,49.5113 130.5,47.5C 132.411,46.925 134.078,45.925 135.5,44.5C 136.957,42.2476 138.457,42.5809 140,45.5C 141.912,44.3081 143.912,43.3081 146,42.5C 146.335,39.8199 145.501,37.4866 143.5,35.5C 144.644,32.713 145.644,29.8797 146.5,27C 146.084,24.0805 145.084,21.4138 143.5,19C 144.169,17.1525 145.503,15.9858 147.5,15.5C 149.786,16.4196 152.119,16.4196 154.5,15.5C 153.854,27.8799 154.521,39.8799 156.5,51.5C 156.833,52.8333 157.167,54.1667 157.5,55.5C 133.5,55.5 109.5,55.5 85.5,55.5C 83.0006,53.3955 83.0006,51.3955 85.5,49.5C 86.6586,45.878 86.8253,42.2113 86,38.5C 85.8078,40.5767 85.3078,42.5767 84.5,44.5C 83.5,43.1667 82.5,43.1667 81.5,44.5C 80.7189,43.2713 80.2189,41.938 80,40.5C 79,42.1667 78,43.8333 77,45.5C 76.5172,44.552 76.3505,43.552 76.5,42.5C 76.67,41.1779 76.3366,40.0113 75.5,39C 76,38.5 76.5,38 77,37.5C 79.2254,26.9716 81.3921,16.4716 83.5,6C 82.9558,5.28281 82.2891,4.78281 81.5,4.5C 78.0242,3.35673 74.3575,3.19007 70.5,4C 70,4.5 69.5,5 69,5.5C 67.5041,14.8035 66.3374,24.1369 65.5,33.5C 64.71,34.6085 64.21,35.9419 64,37.5C 62.4412,27.8141 60.7746,18.1475 59,8.5C 58.6174,7.94404 58.1174,7.61071 57.5,7.5C 56.5475,5.38995 54.8808,4.22329 52.5,4C 48.4285,3.34183 44.4285,3.67516 40.5,5C 39.1667,5.66667 39.1667,6.33333 40.5,7C 39.7471,8.48701 38.9138,8.65367 38,7.5C 36.2994,13.0371 35.4661,18.7037 35.5,24.5C 34.3563,28.9716 33.523,33.6383 33,38.5C 32.8091,36.2922 32.3091,34.2922 31.5,32.5C 31.7947,30.2646 31.4614,28.2646 30.5,26.5C 30.3747,21.2062 29.3747,16.2062 27.5,11.5C 26.3421,10.4274 26.3421,9.26073 27.5,8C 25.8555,6.96801 25.5221,5.80134 26.5,4.5C 22.8927,3.51078 19.226,3.17744 15.5,3.5C 14.0532,4.13419 13.3866,5.30085 13.5,7C 14.4094,13.3908 15.7427,19.5575 17.5,25.5C 17.652,29.924 18.3187,34.2574 19.5,38.5C 18.0014,37.3218 17.0014,35.6551 16.5,33.5C 15.8076,34.0253 15.3076,34.6919 15,35.5C 13.6201,32.9422 12.1201,32.9422 10.5,35.5C 9.4716,33.5599 9.4716,31.5599 10.5,29.5C 9.33058,27.5801 8.33058,25.5801 7.5,23.5C 9.31874,21.2028 9.98541,18.8695 9.5,16.5C 8.28356,17.0016 7.1169,17.3349 6,17.5C 4.22799,23.7861 4.06133,30.1194 5.5,36.5C 6.83333,36.5 8.16667,36.5 9.5,36.5C 9.75605,38.9124 8.75605,40.5791 6.5,41.5C 4.25731,42.4742 1.92397,42.8076 -0.5,42.5C -0.5,28.1667 -0.5,13.8333 -0.5,-0.5 Z"/></g>
<g><path style="opacity:1" fill="#0d0d0d" d="M 15.5,3.5 C 19.226,3.17744 22.8927,3.51078 26.5,4.5C 25.5221,5.80134 25.8555,6.96801 27.5,8C 26.3421,9.26073 26.3421,10.4274 27.5,11.5C 27.8821,16.7442 28.8821,21.7442 30.5,26.5C 31.4614,28.2646 31.7947,30.2646 31.5,32.5C 31.3367,34.8568 31.5034,37.1902 32,39.5C 32.414,39.9574 32.914,40.2907 33.5,40.5C 34.8231,35.2484 35.4898,29.9151 35.5,24.5C 35.4661,18.7037 36.2994,13.0371 38,7.5C 38.9138,8.65367 39.7471,8.48701 40.5,7C 39.1667,6.33333 39.1667,5.66667 40.5,5C 44.4285,3.67516 48.4285,3.34183 52.5,4C 54.8808,4.22329 56.5475,5.38995 57.5,7.5C 59.546,17.7745 61.3793,28.1079 63,38.5C 63.414,38.9574 63.914,39.2907 64.5,39.5C 65.4656,37.604 65.7989,35.604 65.5,33.5C 67.4022,24.7077 68.9022,15.7077 70,6.5C 70.5,6 71,5.5 71.5,5C 74.8168,4.50166 78.1501,4.33499 81.5,4.5C 82.2891,4.78281 82.9558,5.28281 83.5,6C 81.3921,16.4716 79.2254,26.9716 77,37.5C 76.5,38 76,38.5 75.5,39C 76.3366,40.0113 76.67,41.1779 76.5,42.5C 75.7611,42.369 75.0944,42.5357 74.5,43C 76.0767,45.8601 75.4101,48.0268 72.5,49.5C 67.3818,49.4726 62.0485,49.306 56.5,49C 53.4792,47.4612 52.1459,44.9612 52.5,41.5C 52.045,39.6334 51.3784,37.8001 50.5,36C 50.6448,34.7741 50.9781,33.6074 51.5,32.5C 49.167,30.6589 48.8337,28.4922 50.5,26C 49.3783,25.8527 48.3783,25.0194 47.5,23.5C 45.872,29.2676 44.872,35.2676 44.5,41.5C 43.678,43.3885 42.8447,45.3885 42,47.5C 41.2496,48.1258 40.4162,48.6258 39.5,49C 34.5341,49.3914 29.8675,49.5581 25.5,49.5C 22.6387,49.4874 21.6387,48.3207 22.5,46C 20.8078,44.5993 20.1412,42.7659 20.5,40.5C 20.1179,35.2558 19.1179,30.2558 17.5,25.5C 16.9535,19.2663 15.9535,13.0997 14.5,7C 14.9891,5.86151 15.3225,4.69484 15.5,3.5 Z"/></g>
<g><path style="opacity:1" fill="#0c0c0c" d="M 136.5,14.5 C 138.067,24.5848 137.734,34.5848 135.5,44.5C 134.078,45.925 132.411,46.925 130.5,47.5C 126.952,48.7593 123.285,49.5926 119.5,50C 109.5,50.6667 99.5,50.6667 89.5,50C 88.8496,43.0677 88.183,36.2344 87.5,29.5C 87.1834,20.9149 87.5168,12.4149 88.5,4C 100.882,3.10576 113.215,3.43909 125.5,5C 130.594,6.59916 134.261,9.76582 136.5,14.5 Z"/></g>
<g><path style="opacity:1" fill="#fafaf9" d="M 151.5,-0.5 C 167.5,-0.5 183.5,-0.5 199.5,-0.5C 199.5,18.1667 199.5,36.8333 199.5,55.5C 185.5,55.5 171.5,55.5 157.5,55.5C 157.167,54.1667 156.833,52.8333 156.5,51.5C 154.521,39.8799 153.854,27.8799 154.5,15.5C 152.119,16.4196 149.786,16.4196 147.5,15.5C 145.503,15.9858 144.169,17.1525 143.5,19C 145.084,21.4138 146.084,24.0805 146.5,27C 145.644,29.8797 144.644,32.713 143.5,35.5C 145.501,37.4866 146.335,39.8199 146,42.5C 143.912,43.3081 141.912,44.3081 140,45.5C 138.457,42.5809 136.957,42.2476 135.5,44.5C 137.734,34.5848 138.067,24.5848 136.5,14.5C 138.061,11.0569 138.894,7.3902 139,3.5C 139.667,2.83333 140.333,2.16667 141,1.5C 142.569,2.12218 144.236,2.45551 146,2.5C 148.574,2.55614 150.407,1.55614 151.5,-0.5 Z"/></g>
<g><path style="opacity:1" fill="#0e0e0e" d="M 169.5,13.5 C 169.829,26.0113 169.495,38.3446 168.5,50.5C 164.563,50.7935 160.73,50.4601 157,49.5C 156.5,37.1712 156.333,24.8378 156.5,12.5C 151.5,12.5 146.5,12.5 141.5,12.5C 141.5,10.1667 141.5,7.83333 141.5,5.5C 155.5,5.5 169.5,5.5 183.5,5.5C 183.5,7.83333 183.5,10.1667 183.5,12.5C 178.637,12.1805 173.97,12.5139 169.5,13.5 Z"/></g>
<g><path style="opacity:1" fill="#515151" d="M 169.5,13.5 C 173.97,12.5139 178.637,12.1805 183.5,12.5C 183.5,10.1667 183.5,7.83333 183.5,5.5C 169.5,5.5 155.5,5.5 141.5,5.5C 141.5,7.83333 141.5,10.1667 141.5,12.5C 146.5,12.5 151.5,12.5 156.5,12.5C 156.333,24.8378 156.5,37.1712 157,49.5C 160.73,50.4601 164.563,50.7935 168.5,50.5C 164.702,51.4834 160.702,51.8168 156.5,51.5C 155.52,38.913 155.187,26.2464 155.5,13.5C 150.5,13.5 145.5,13.5 140.5,13.5C 140.216,10.2234 140.549,7.05675 141.5,4C 155.5,3.33333 169.5,3.33333 183.5,4C 184.451,7.05675 184.784,10.2234 184.5,13.5C 179.5,13.5 174.5,13.5 169.5,13.5 Z"/></g>
<g><path style="opacity:1" fill="#414141" d="M 15.5,3.5 C 15.3225,4.69484 14.9891,5.86151 14.5,7C 15.9535,13.0997 16.9535,19.2663 17.5,25.5C 15.7427,19.5575 14.4094,13.3908 13.5,7C 13.3866,5.30085 14.0532,4.13419 15.5,3.5 Z"/></g>
<g><path style="opacity:1" fill="#f9f9f8" d="M 118.5,41.5 C 112.833,41.5 107.167,41.5 101.5,41.5C 101.5,37.5 101.5,33.5 101.5,29.5C 101.5,24.1667 101.5,18.8333 101.5,13.5C 121.742,9.58015 128.909,17.5801 123,37.5C 121.603,39.0703 120.103,40.4036 118.5,41.5 Z"/></g>
<g><path style="opacity:1" fill="#4f4f4f" d="M 27.5,11.5 C 29.3747,16.2062 30.3747,21.2062 30.5,26.5C 28.8821,21.7442 27.8821,16.7442 27.5,11.5 Z"/></g>
<g><path style="opacity:1" fill="#3e3e3e" d="M 81.5,4.5 C 78.1501,4.33499 74.8168,4.50166 71.5,5C 71,5.5 70.5,6 70,6.5C 68.9022,15.7077 67.4022,24.7077 65.5,33.5C 66.3374,24.1369 67.5041,14.8035 69,5.5C 69.5,5 70,4.5 70.5,4C 74.3575,3.19007 78.0242,3.35673 81.5,4.5 Z"/></g>
<g><path style="opacity:1" fill="#f9f8f7" d="M 19.5,38.5 C 19.3284,39.4916 19.6618,40.1583 20.5,40.5C 20.1412,42.7659 20.8078,44.5993 22.5,46C 21.6387,48.3207 22.6387,49.4874 25.5,49.5C 30.3158,50.6497 35.3158,50.8163 40.5,50C 43.8212,48.1881 45.1546,45.3547 44.5,41.5C 46.3445,35.7671 47.3445,29.7671 47.5,23.5C 48.3783,25.0194 49.3783,25.8527 50.5,26C 48.8337,28.4922 49.167,30.6589 51.5,32.5C 50.9781,33.6074 50.6448,34.7741 50.5,36C 51.3784,37.8001 52.045,39.6334 52.5,41.5C 50.8081,45.1449 51.8081,47.9782 55.5,50C 61.3801,52.1179 67.0468,51.9513 72.5,49.5C 75.4101,48.0268 76.0767,45.8601 74.5,43C 75.0944,42.5357 75.7611,42.369 76.5,42.5C 76.3505,43.552 76.5172,44.552 77,45.5C 78,43.8333 79,42.1667 80,40.5C 80.2189,41.938 80.7189,43.2713 81.5,44.5C 82.5,43.1667 83.5,43.1667 84.5,44.5C 85.3078,42.5767 85.8078,40.5767 86,38.5C 86.8253,42.2113 86.6586,45.878 85.5,49.5C 83.0006,51.3955 83.0006,53.3955 85.5,55.5C 56.8333,55.5 28.1667,55.5 -0.5,55.5C -0.5,51.1667 -0.5,46.8333 -0.5,42.5C 1.92397,42.8076 4.25731,42.4742 6.5,41.5C 8.75605,40.5791 9.75605,38.9124 9.5,36.5C 8.16667,36.5 6.83333,36.5 5.5,36.5C 4.06133,30.1194 4.22799,23.7861 6,17.5C 7.1169,17.3349 8.28356,17.0016 9.5,16.5C 9.98541,18.8695 9.31874,21.2028 7.5,23.5C 8.33058,25.5801 9.33058,27.5801 10.5,29.5C 9.4716,31.5599 9.4716,33.5599 10.5,35.5C 12.1201,32.9422 13.6201,32.9422 15,35.5C 15.3076,34.6919 15.8076,34.0253 16.5,33.5C 17.0014,35.6551 18.0014,37.3218 19.5,38.5 Z"/></g>
<g><path style="opacity:1" fill="#5c5c5c" d="M 17.5,25.5 C 19.1179,30.2558 20.1179,35.2558 20.5,40.5C 19.6618,40.1583 19.3284,39.4916 19.5,38.5C 18.3187,34.2574 17.652,29.924 17.5,25.5 Z"/></g>
<g><path style="opacity:1" fill="#545454" d="M 35.5,24.5 C 35.4898,29.9151 34.8231,35.2484 33.5,40.5C 32.914,40.2907 32.414,39.9574 32,39.5C 31.5034,37.1902 31.3367,34.8568 31.5,32.5C 32.3091,34.2922 32.8091,36.2922 33,38.5C 33.523,33.6383 34.3563,28.9716 35.5,24.5 Z"/></g>
<g><path style="opacity:1" fill="#474747" d="M 57.5,7.5 C 58.1174,7.61071 58.6174,7.94404 59,8.5C 60.7746,18.1475 62.4412,27.8141 64,37.5C 64.21,35.9419 64.71,34.6085 65.5,33.5C 65.7989,35.604 65.4656,37.604 64.5,39.5C 63.914,39.2907 63.414,38.9574 63,38.5C 61.3793,28.1079 59.546,17.7745 57.5,7.5 Z"/></g>
<g><path style="opacity:1" fill="#6b6b6b" d="M 47.5,23.5 C 47.3445,29.7671 46.3445,35.7671 44.5,41.5C 44.872,35.2676 45.872,29.2676 47.5,23.5 Z"/></g>
<g><path style="opacity:1" fill="#494949" d="M 101.5,29.5 C 101.5,33.5 101.5,37.5 101.5,41.5C 107.167,41.5 112.833,41.5 118.5,41.5C 112.69,42.4896 106.69,42.8229 100.5,42.5C 100.182,37.9677 100.515,33.6344 101.5,29.5 Z"/></g>
<g><path style="opacity:1" fill="#616161" d="M 44.5,41.5 C 45.1546,45.3547 43.8212,48.1881 40.5,50C 35.3158,50.8163 30.3158,50.6497 25.5,49.5C 29.8675,49.5581 34.5341,49.3914 39.5,49C 40.4162,48.6258 41.2496,48.1258 42,47.5C 42.8447,45.3885 43.678,43.3885 44.5,41.5 Z"/></g>
<g><path style="opacity:1" fill="#646464" d="M 52.5,41.5 C 52.1459,44.9612 53.4792,47.4612 56.5,49C 62.0485,49.306 67.3818,49.4726 72.5,49.5C 67.0468,51.9513 61.3801,52.1179 55.5,50C 51.8081,47.9782 50.8081,45.1449 52.5,41.5 Z"/></g>
<g><path style="opacity:1" fill="#484848" d="M 87.5,29.5 C 88.183,36.2344 88.8496,43.0677 89.5,50C 99.5,50.6667 109.5,50.6667 119.5,50C 123.285,49.5926 126.952,48.7593 130.5,47.5C 128.333,49.5113 125.666,50.6779 122.5,51C 111.167,51.6667 99.8333,51.6667 88.5,51C 87.5201,43.9213 87.1868,36.7546 87.5,29.5 Z"/></g>
</svg>
